<?xml version="1.0" encoding="UTF-8" standalone="no"?>
<svg
   xmlns:dc="http://purl.org/dc/elements/1.1/"
   xmlns:cc="http://creativecommons.org/ns#"
   xmlns:rdf="http://www.w3.org/1999/02/22-rdf-syntax-ns#"
   xmlns:svg="http://www.w3.org/2000/svg"
   xmlns="http://www.w3.org/2000/svg"
   xmlns:sodipodi="http://sodipodi.sourceforge.net/DTD/sodipodi-0.dtd"
   xmlns:inkscape="http://www.inkscape.org/namespaces/inkscape"
   sodipodi:docname="computer guy.svg"
   inkscape:version="1.0 (4035a4fb49, 2020-05-01)"
   version="1.1"
   id="svg2"
   height="992.72675"
   width="1718.6296">
  <defs
     id="defs4" />
  <sodipodi:namedview
     inkscape:document-rotation="0"
     inkscape:window-maximized="1"
     inkscape:window-y="-8"
     inkscape:window-x="-8"
     inkscape:window-height="706"
     inkscape:window-width="1366"
     fit-margin-bottom="0"
     fit-margin-right="0"
     fit-margin-left="0"
     fit-margin-top="0"
     inkscape:guide-bbox="true"
     showguides="true"
     showgrid="false"
     inkscape:current-layer="layer1"
     inkscape:document-units="px"
     inkscape:cy="1182.375"
     inkscape:cx="1164.6886"
     inkscape:zoom="0.175"
     inkscape:pageshadow="2"
     inkscape:pageopacity="0.0"
     borderopacity="1.0"
     bordercolor="#666666"
     pagecolor="#ffffff"
     id="base" />
  <metadata
     id="metadata7">
    <rdf:RDF>
      <cc:Work
         rdf:about="">
        <dc:format>image/svg+xml</dc:format>
        <dc:type
           rdf:resource="http://purl.org/dc/dcmitype/StillImage" />
        <dc:title />
      </cc:Work>
    </rdf:RDF>
  </metadata>
  <g
     transform="translate(855.59918,-221.08653)"
     id="layer1"
     inkscape:groupmode="layer"
     inkscape:label="Layer 1">
    <path
       style="fill:#ffffff;stroke:none"
       d="m 844.48753,1213.9866 0,-92.934 -1701.09689,0 0,92.934 z"
       id="path3812"
       inkscape:connector-curvature="0" />
    <path
       id="path3881"
       transform="translate(-855.59918,221.08653)"
       d="M 1700.0938 902.4375 C 1699.2367 902.62999 1388.3571 972.44607 1295.8125 992.90625 L 1698.9062 992.90625 L 1700.0938 928.90625 L 1700.0938 902.4375 z "
       style="fill:#cccccc;fill-opacity:1;stroke:none" />
    <path
       inkscape:connector-curvature="0"
       id="path3784"
       d="m -856.60936,1121.0526 1701.09689,0 0,92.934"
       style="fill:none;stroke:#000000;stroke-width:12;stroke-linecap:butt;stroke-linejoin:round;stroke-miterlimit:4;stroke-opacity:1;stroke-dasharray:none;stroke-dashoffset:0.80000000000000004" />
    <path
       sodipodi:nodetypes="cccccc"
       inkscape:connector-curvature="0"
       id="path3786"
       d="M 830.5,1121.0625 399.875,1214 l 49.41212,0 394.35311,-84.1133 -4.51523,-8.8242 z"
       style="font-size:medium;font-style:normal;font-variant:normal;font-weight:normal;font-stretch:normal;text-indent:0;text-align:start;text-decoration:none;line-height:normal;letter-spacing:normal;word-spacing:normal;text-transform:none;direction:ltr;block-progression:tb;writing-mode:lr-tb;text-anchor:start;baseline-shift:baseline;color:#000000;fill:#000000;fill-opacity:1;stroke:none;stroke-width:12;marker:none;visibility:visible;display:inline;overflow:visible;enable-background:accumulate;font-family:Sans;-inkscape-font-specification:Sans" />
    <path
       sodipodi:nodetypes="cccccc"
       inkscape:connector-curvature="0"
       id="path2996"
       d="m -486.38845,1077.6161 440.426509,0.505 88.388348,31.8198 1.010152,26.2639 -329.035739,0 -193.21313,0"
       style="fill:#cccccc;stroke:#000000;stroke-width:12;stroke-linecap:butt;stroke-linejoin:round;stroke-miterlimit:4;stroke-opacity:1;stroke-dasharray:none;stroke-dashoffset:0.80000000000000004;fill-opacity:1" />
    <path
       sodipodi:nodetypes="cc"
       inkscape:connector-curvature="0"
       id="path3766"
       d="m -46.467017,1079.1312 -1.500361,53.7115"
       style="fill:none;stroke:#000000;stroke-width:12;stroke-linecap:butt;stroke-linejoin:round;stroke-miterlimit:4;stroke-opacity:1;stroke-dasharray:none;stroke-dashoffset:0.8" />
    <path
       sodipodi:nodetypes="cccccccc"
       inkscape:connector-curvature="0"
       id="path3768"
       d="m -741.95705,614.96613 118.69293,438.40617 476.792,-13.1319 34.37492,-37.1603 -109.26979,-532.76884 -485.88337,10e-6 -37.23207,34.54823 z"
       style="fill:#ffffff;stroke:#000000;stroke-width:12;stroke-linecap:butt;stroke-linejoin:round;stroke-miterlimit:4;stroke-opacity:1;stroke-dasharray:none;stroke-dashoffset:0.8" />
    <path
       transform="translate(-855.59918,221.08653)"
       id="path3876"
       d="M 634.34375 249.8125 L 598.9375 288.09375 L 537.84375 390.59375 L 631.78125 799.875 L 463.21875 805.59375 L 418.03125 827.15625 L 709.125 819.15625 L 743.5 782 L 634.34375 249.8125 z "
       style="fill:#cccccc;fill-opacity:1;stroke:#000000;stroke-width:12;stroke-miterlimit:4;stroke-dasharray:none;stroke-linejoin:round;stroke-linecap:round" />
    <path
       inkscape:connector-curvature="0"
       id="path3770"
       d="m -745.49258,506.87981 488.91383,2.0203 108.08633,529.31989"
       style="fill:none;stroke:#000000;stroke-width:12;stroke-linecap:butt;stroke-linejoin:round;stroke-miterlimit:4;stroke-opacity:1;stroke-dasharray:none;stroke-dashoffset:0.80000000000000004" />
    <path
       sodipodi:nodetypes="ccc"
       inkscape:connector-curvature="0"
       id="path3772"
       d="m -223.57547,1021.0983 -94.62258,-408.15247 -423.759,2.0203"
       style="fill:none;stroke:#000000;stroke-width:12;stroke-linecap:butt;stroke-linejoin:round;stroke-miterlimit:4;stroke-opacity:1;stroke-dasharray:none;stroke-dashoffset:0.8" />
    <path
       inkscape:connector-curvature="0"
       id="path3774"
       d="m -319.2082,612.94583 60.60915,-103.03556"
       style="fill:none;stroke:#000000;stroke-width:12;stroke-linecap:butt;stroke-linejoin:round;stroke-miterlimit:4;stroke-opacity:1;stroke-dasharray:none;stroke-dashoffset:0.80000000000000004" />
    <path
       sodipodi:nodetypes="ccc"
       inkscape:connector-curvature="0"
       id="path3776"
       d="m -149.50258,1040.2404 -74.07289,-19.1421 -158.68061,5.6635"
       style="fill:none;stroke:#000000;stroke-width:12;stroke-linecap:butt;stroke-linejoin:round;stroke-miterlimit:4;stroke-opacity:1;stroke-dasharray:none;stroke-dashoffset:0.8" />
    <path
       sodipodi:nodetypes="csccccccc"
       inkscape:connector-curvature="0"
       id="path3778"
       d="m -729.33014,1180.6516 c 0,0 67.68022,-67.6803 67.68022,-71.7209 0,-4.0406 47.47717,-387.89855 47.47717,-387.89855 l 234.35539,2.0203 31.31473,124.24877 -36.36549,244.45688 79.45543,63.7832 -93.59757,25.1103 z"
       style="fill:#ffffff;stroke:#000000;stroke-width:12;stroke-linecap:butt;stroke-linejoin:round;stroke-miterlimit:4;stroke-opacity:1;stroke-dasharray:none;stroke-dashoffset:0.8" />
    <path
       sodipodi:nodetypes="ccccccccc"
       inkscape:connector-curvature="0"
       id="path3780"
       transform="translate(-855.59918,221.08653)"
       d="M 476.46875,504.71875 473.75,506 l -45.4375,378.8125 27.90625,74.75 0.375,0 93.59073,-25.09454 -79.46573,-63.81171 36.375,-244.4375 z"
       style="fill:#cccccc;fill-opacity:1;stroke:#000000;stroke-width:12;stroke-linecap:butt;stroke-linejoin:round;stroke-miterlimit:4;stroke-opacity:1;stroke-dasharray:none;stroke-dashoffset:0.8" />
    <path
       inkscape:connector-curvature="0"
       id="path3782"
       d="m -385.87827,1093.7784 -40.4061,13.132 -234.35539,1.0102"
       style="fill:none;stroke:#000000;stroke-width:12;stroke-linecap:butt;stroke-linejoin:round;stroke-miterlimit:4;stroke-opacity:1;stroke-dasharray:none;stroke-dashoffset:0.80000000000000004" />
    <path
       sodipodi:nodetypes="cc"
       inkscape:connector-curvature="0"
       id="path3788"
       d="M 668.57143,1116.6479 C 667.3064,948.82442 611.21392,849.53526 550,756.6479"
       style="fill:none;stroke:#000000;stroke-width:14;stroke-linecap:round;stroke-linejoin:round;stroke-miterlimit:4;stroke-opacity:1;stroke-dasharray:none;stroke-dashoffset:0.80000000000000004" />
    <path
       sodipodi:nodetypes="zzzzzzz"
       inkscape:connector-curvature="0"
       id="path3792"
       d="m 678.57143,379.50504 c 56.43679,94.55379 36.09553,239.27879 -30,331.42857 -66.09553,92.14978 -207.19585,156.16048 -314.28572,148.57143 -107.08987,-7.58905 -190.79763,-97.19222 -230,-187.14286 -39.202368,-89.95064 -30.503036,-211.34455 21.42858,-291.42857 51.93162,-80.08402 148.60271,-126.88085 250,-127.14286 101.39729,-0.26201 246.42035,31.1605 302.85714,125.71429 z"
       style="fill:#ffffff;stroke:#000000;stroke-width:16;stroke-linecap:round;stroke-linejoin:round;stroke-miterlimit:4;stroke-opacity:1;stroke-dasharray:none;stroke-dashoffset:0.80000000000000004" />
    <path
       sodipodi:nodetypes="csc"
       inkscape:connector-curvature="0"
       id="path3794"
       d="m 62.950705,547.90303 c 23.8631,3.59127 39.281545,8.06254 107.428955,8.36221 14.18411,0.0624 30.02176,-7.31677 30.75273,-17.32795"
       style="fill:none;stroke:#000000;stroke-width:12;stroke-linecap:round;stroke-linejoin:round;stroke-miterlimit:4;stroke-opacity:1;stroke-dasharray:none;stroke-dashoffset:0.80000000000000004" />
    <path
       sodipodi:nodetypes="czc"
       inkscape:connector-curvature="0"
       id="path3796"
       d="m 88.893424,624.0575 c 29.883676,8.08122 72.605746,10.1533 90.138176,-6.96646 17.53242,-17.11977 6.83647,-59.45107 2.79586,-67.53229"
       style="fill:none;stroke:#000000;stroke-width:12;stroke-linecap:butt;stroke-linejoin:round;stroke-miterlimit:4;stroke-opacity:1;stroke-dasharray:none;stroke-dashoffset:0.80000000000000004" />
    <path
       style="fill:none;stroke:#000000;stroke-width:12;stroke-linecap:round;stroke-linejoin:round;stroke-miterlimit:4;stroke-opacity:1;stroke-dasharray:none;stroke-dashoffset:0.80000000000000004"
       d="m 270.74483,540.65429 c -2.18308,21.86801 18.48989,22.65265 35.89104,20.21048 64.53995,-9.05788 113.26579,-21.88274 160.69401,-36.20576 22.95428,40.00861 4.33309,81.32286 -17.7128,96.30466 -36.26639,24.64567 -103.45992,25.50598 -138.00994,0.32708 -21.93334,-15.98428 -25.66515,-36.96758 -21.78571,-58.21428"
       id="path3798"
       inkscape:connector-curvature="0"
       sodipodi:nodetypes="cscssc" />
    <path
       transform="matrix(0.66666667,0,0,0.66666667,108.1934,199.23913)"
       d="m 342.94678,590.21741 a 15.152288,15.152288 0 1 1 -30.30457,0 15.152288,15.152288 0 1 1 30.30457,0 z"
       sodipodi:ry="15.152288"
       sodipodi:rx="15.152288"
       sodipodi:cy="590.21741"
       sodipodi:cx="327.79449"
       id="path3800"
       style="fill:#000000;stroke:none"
       sodipodi:type="arc" />
    <path
       sodipodi:type="arc"
       style="fill:#000000;stroke:none"
       id="path3802"
       sodipodi:cx="327.79449"
       sodipodi:cy="590.21741"
       sodipodi:rx="15.152288"
       sodipodi:ry="15.152288"
       d="m 342.94678,590.21741 a 15.152288,15.152288 0 1 1 -30.30457,0 15.152288,15.152288 0 1 1 30.30457,0 z"
       transform="matrix(0.66666667,0,0,0.66666667,-101.95422,193.2036)" />
    <path
       sodipodi:nodetypes="cc"
       inkscape:connector-curvature="0"
       id="path3804"
       d="m 205,713.07647 c 30.17416,-23.82272 56.73466,-19.5207 87.85714,2.14285"
       style="fill:none;stroke:#000000;stroke-width:6;stroke-linecap:round;stroke-miterlimit:4;stroke-dasharray:none" />
    <path
       sodipodi:nodetypes="ccsssc"
       inkscape:connector-curvature="0"
       id="path3790"
       d="m 602.85714,848.07647 c 4.41243,91.87358 -31.51229,242.19833 -78.57143,290.00003 C 513.20117,1016.0626 430.33653,689.74051 230,689.50504 95.669285,689.34715 99.896446,965.87773 150.03663,1118.3268 c 8.07971,24.566 12.97971,20.6629 31.53748,10.5423 160.69875,-87.6384 229.53358,-198.26059 319.40252,-303.61532"
       style="fill:none;stroke:#000000;stroke-width:14;stroke-linecap:round;stroke-linejoin:round;stroke-miterlimit:4;stroke-opacity:1;stroke-dasharray:none;stroke-dashoffset:0.8" />
    <path
       transform="translate(-855.59918,221.08653)"
       sodipodi:nodetypes="cc"
       inkscape:connector-curvature="0"
       id="path3832"
       d="m 1082.2982,315.91257 c 1.1064,5.85005 -1.0813,18.12486 -7.4281,21.60932"
       style="fill:none;stroke:#000000;stroke-width:7;stroke-linecap:round;stroke-linejoin:round;stroke-miterlimit:4;stroke-opacity:1;stroke-dasharray:none;stroke-dashoffset:0.80000000000000004" />
    <path
       transform="translate(-855.59918,221.08653)"
       sodipodi:nodetypes="cc"
       inkscape:connector-curvature="0"
       id="path3834"
       d="m 1094.105,316.08588 c -0.8358,9.99141 1.7119,14.85835 7.089,22.56871"
       style="fill:none;stroke:#000000;stroke-width:7;stroke-linecap:round;stroke-linejoin:round;stroke-miterlimit:4;stroke-opacity:1;stroke-dasharray:none;stroke-dashoffset:0.80000000000000004" />
    <path
       style="fill:none;stroke:#000000;stroke-width:6;stroke-linecap:round;stroke-miterlimit:4;stroke-dasharray:none"
       d="m 234.65157,746.05436 c 8.44714,-4.85886 26.12317,-5.24102 35.45176,2.49256"
       id="path3869"
       inkscape:connector-curvature="0"
       sodipodi:nodetypes="cc" />
    <path
       sodipodi:nodetypes="cc"
       transform="translate(-855.59918,221.08653)"
       inkscape:connector-curvature="0"
       id="path3871"
       d="m 599.02046,289.66057 33.78318,-37.99711"
       style="fill:#ffffff;fill-opacity:1;stroke:#000000;stroke-width:12;stroke-miterlimit:4;stroke-dasharray:none" />
  </g>
</svg>
